<?xml version="1.0" encoding="utf-8"?>
<!-- Generator: Adobe Illustrator 14.0.0, SVG Export Plug-In . SVG Version: 6.00 Build 43363)  -->
<!DOCTYPE svg PUBLIC "-//W3C//DTD SVG 1.1//EN" "http://www.w3.org/Graphics/SVG/1.1/DTD/svg11.dtd">
<svg version="1.1" id="Capa_1" xmlns="http://www.w3.org/2000/svg" xmlns:xlink="http://www.w3.org/1999/xlink" x="0px" y="0px"
	 width="512px" height="512px" viewBox="0 0 512 512" enable-background="new 0 0 512 512" xml:space="preserve">
<path fill="#5885E8" d="M509.394,20.968c-2.279-1.999-5.522-2.463-8.271-1.188L4.428,250.559c-2.674,1.243-4.396,3.911-4.428,6.859
	c-0.032,2.947,1.633,5.652,4.281,6.951l140.563,68.983c2.578,1.266,5.651,0.979,7.953-0.741l136.667-102.146L182.176,340.825
	c-1.531,1.575-2.312,3.731-2.143,5.921l10.682,139.118c0.237,3.083,2.304,5.719,5.241,6.685c0.785,0.257,1.592,0.383,2.389,0.383
	c2.188,0,4.315-0.938,5.795-2.653l74.607-86.453l92.229,44.067c2.002,0.956,4.319,0.996,6.354,0.111
	c2.034-0.887,3.584-2.609,4.248-4.726L511.648,29.015C512.558,26.122,511.671,22.967,509.394,20.968z"/>
</svg>
